<?xml version="1.0" encoding="UTF-8" standalone="no"?>
<svg
   xmlns:dc="http://purl.org/dc/elements/1.1/"
   xmlns:cc="http://creativecommons.org/ns#"
   xmlns:rdf="http://www.w3.org/1999/02/22-rdf-syntax-ns#"
   xmlns:svg="http://www.w3.org/2000/svg"
   xmlns="http://www.w3.org/2000/svg"
   id="svg8"
   version="1.1"
   viewBox="0 0 210 297"
   height="297mm"
   width="210mm">
  <defs
     id="defs2" />
  <metadata
     id="metadata5">
    <rdf:RDF>
      <cc:Work
         rdf:about="">
        <dc:format>image/svg+xml</dc:format>
        <dc:type
           rdf:resource="http://purl.org/dc/dcmitype/StillImage" />
        <dc:title></dc:title>
      </cc:Work>
    </rdf:RDF>
  </metadata>
  <g
     id="layer1">
    <g
       style="fill:#cccccc;fill-opacity:1;stroke:none;stroke-width:0.37795275;stroke-miterlimit:4;stroke-dasharray:none;stroke-opacity:1"
       id="g817">
      <path
         points="48.29491,189.39424 79.980334,181.38119 79.980334,122.64219 48.29491,116.34072 "
         d="m 48.29491,116.34072 v 73.05352 l 31.685424,-8.01305 v -58.739 z"
         style="fill:#353564;fill-rule:evenodd;stroke:none;stroke-linejoin:round"
         id="path819" />
      <path
         points="144.06176,270.48585 171.81785,219.13705 79.980334,181.38119 48.29491,189.39424 "
         d="m 48.29491,189.39424 95.76685,81.09161 27.75609,-51.3488 -91.837516,-37.75586 z"
         style="fill:#afafde;fill-rule:evenodd;stroke:none;stroke-linejoin:round"
         id="path827" />
      <path
         points="171.81785,92.950933 171.81785,219.13705 79.980334,181.38119 79.980334,122.64219 "
         d="M 79.980334,122.64219 171.81785,92.950933 V 219.13705 L 79.980334,181.38119 Z"
         style="fill:#e9e9ff;fill-rule:evenodd;stroke:none;stroke-linejoin:round"
         id="path829" />
      <path
         points="144.06176,52.57016 171.81785,92.950933 79.980334,122.64219 48.29491,116.34072 "
         d="M 48.29491,116.34072 144.06176,52.57016 171.81785,92.950933 79.980334,122.64219 Z"
         style="fill:#4d4d9f;fill-rule:evenodd;stroke:none;stroke-linejoin:round"
         id="path821" />
      <path
         points="144.06176,270.48585 171.81785,219.13705 171.81785,92.950933 144.06176,52.57016 "
         d="m 144.06176,52.57016 v 217.91569 l 27.75609,-51.3488 V 92.950933 Z"
         style="fill:#d7d7ff;fill-rule:evenodd;stroke:none;stroke-linejoin:round"
         id="path825" />
      <path
         points="144.06176,52.57016 144.06176,270.48585 48.29491,189.39424 48.29491,116.34072 "
         d="M 48.29491,116.34072 144.06176,52.57016 V 270.48585 L 48.29491,189.39424 Z"
         style="fill:#8686bf;fill-rule:evenodd;stroke:none;stroke-linejoin:round"
         id="path823" />
    </g>
  </g>
</svg>
